<?xml version="1.0" encoding="UTF-8"?>
<svg width="25px" height="23px" viewBox="0 0 25 23" version="1.1" xmlns="http://www.w3.org/2000/svg" xmlns:xlink="http://www.w3.org/1999/xlink">
    <!-- Generator: Sketch 54.1 (76490) - https://sketchapp.com -->
    <title>_ionicons_svg_md-arrow-round-forward</title>
    <desc>Created with Sketch.</desc>
    <g id="Home" stroke="none" stroke-width="1" fill="none" fill-rule="evenodd">
        <g id="_ionicons_svg_md-arrow-round-forward" fill="#EB144C" fill-rule="nonzero">
            <path d="M14.5525568,22.3487952 L24.3607955,13.0656627 C24.7869318,12.6638554 25,12.1165663 25,11.5138554 L25,11.4861446 C25,10.8834337 24.7869318,10.3361446 24.3607955,9.93433735 L14.5525568,0.651204819 C13.7002841,-0.214759036 12.3295455,-0.214759036 11.484375,0.651204819 C10.6392045,1.51716867 10.6392045,2.91656627 11.484375,3.78253012 L17.3792614,9.28313253 L2.18039773,9.28313253 C0.973011364,9.28313253 -1.42108547e-14,10.2737952 -1.42108547e-14,11.5 C-1.42108547e-14,12.746988 0.973011364,13.7168675 2.17329545,13.7168675 L17.3721591,13.7168675 L11.4772727,19.2174699 C10.6321023,20.0834337 10.6321023,21.4828313 11.4772727,22.3487952 C12.3295455,23.214759 13.7002841,23.214759 14.5525568,22.3487952 Z" id="Path"></path>
        </g>
    </g>
</svg>