<svg xmlns="http://www.w3.org/2000/svg" style="display: none;">
  
    <symbol id="icon-user-1" viewBox="0 0 512 512">
      <path d="m461 452c0-31-20-59-49-69l-105-39l0-48c32-25 54-67 54-116c0-76-53-137-117-137c-64 0-116 61-116 137c0 52 24 97 60 120l0 44l-105 39c-29 10-49 38-49 69l0 43l427 0z m-217-392c50 0 90 44 98 101c-1 0-2 0-2 0c-33 6-53-4-72-37l-7-14l-8 14c-10 20-44 37-73 37c-12 0-22-2-32-7c9-54 49-94 96-94z m-99 120c0-2 1-5 1-8c10 4 22 6 34 6c30 0 63-15 80-35c18 25 38 37 63 37c7 0 13-1 20-2c0 0 0 0 0 0c0 1 0 2 0 2c0 67-44 121-99 121c-54 0-99-54-99-121z m299 298l-393 0l0-26c0-24 15-45 37-53l117-43l0-46c12 5 25 8 39 8c17 0 32-4 46-11l0 49l116 43c22 8 38 30 38 53z"/>
    </symbol>
  
    <symbol id="icon-lock-unlock-2" viewBox="0 0 512 512">
      <path d="m239 339l0 58c0 5 4 9 8 9c5 0 9-4 9-9l0-58c5-3 9-8 9-15c0-9-8-17-18-17c-9 0-17 8-17 17c0 7 4 12 9 15z m136-202c0-66-51-137-128-137c-76 0-128 71-128 137l18 0c0-58 44-120 110-120c67 0 111 62 111 120l0 68l-290 0l0 307l359 0l0-307l-52 0z m35 358l-325 0l0-273l325 0z"/>
    </symbol>
  
    <symbol id="icon-phone-vibration" viewBox="0 0 512 512">
      <path d="m341 85l-170 0c-24 0-43 19-43 43l0 299c0 23 19 42 43 42l170 0c24 0 43-19 43-42l0-299c0-24-19-43-43-43z m-192 107l214 0l0 192l-214 0z m22-85l170 0c12 0 22 9 22 21l0 43l-214 0l0-43c0-12 10-21 22-21z m170 341l-170 0c-12 0-22-10-22-21l0-22l214 0l0 22c0 11-10 21-22 21z m-138-299l106 0c6 0 11-4 11-10c0-6-5-11-11-11l-106 0c-6 0-11 5-11 11c0 6 5 10 11 10z m-128 22c-6 0-11 4-11 10l0 256c0 6 5 11 11 11c6 0 10-5 10-11l0-256c0-6-4-10-10-10z m-64 21c-6 0-11 5-11 11l0 213c0 6 5 11 11 11c6 0 10-5 10-11l0-213c0-6-4-11-10-11z m426-64c-6 0-10 5-10 11l0 256c0 6 4 10 10 10c6 0 11-4 11-10l0-256c0-6-5-11-11-11z m64 21c-6 0-10 5-10 11l0 213c0 6 4 11 10 11c6 0 11-5 11-11l0-213c0-6-5-11-11-11z"/>
    </symbol>
  
    <symbol id="icon-address-1" viewBox="0 0 512 512">
      <path d="m256 0c-141 0-256 115-256 256c0 141 115 256 256 256c52 0 102-15 145-45c7-5 9-16 4-23c-5-8-16-10-24-5c-36 26-80 39-125 39c-122 0-222-100-222-222c0-122 100-222 222-222c122 0 222 100 222 222l0 21c0 30-25 55-56 55c-30 0-55-25-55-55l0-21c0-61-50-111-111-111c-61 0-111 50-111 111c0 61 50 111 111 111c36 0 68-18 89-45c15 27 44 45 77 45c50 0 90-41 90-90l0-21c0-141-115-256-256-256z m0 332c-42 0-76-34-76-76c0-42 34-76 76-76c42 0 76 34 76 76c0 42-34 76-76 76z"/>
    </symbol>
  
    <symbol id="icon-map-streamline-user" viewBox="0 0 512 512">
      <path d="m256 149c41 0 75-33 75-74c0-41-34-75-75-75c-41 0-75 34-75 75c0 41 34 74 75 74z m0-128c29 0 53 24 53 54c0 29-24 53-53 53c-29 0-53-24-53-53c0-30 24-54 53-54z m-43 289l0 85c0 6 5 10 11 10l64 0c6 0 11-4 11-10l0-85c47-25 64-90 64-139c0-6-5-11-11-11l-192 0c-6 0-11 5-11 11c0 49 17 114 64 139z m128-129c-2 38-16 95-57 112c-4 2-7 6-7 10l0 81l-42 0l0-81c0-4-3-8-7-10c-41-17-55-74-57-112z m-85 256c-86 0-136-17-139-26c1-2 13-13 55-20c6-1 10-7 9-13c-1-6-6-9-12-8c-49 8-73 22-73 41c0 38 101 48 160 48c59 0 160-10 160-48c0-19-24-33-72-41c-6-1-12 2-13 8c-1 6 3 12 9 13c43 7 54 18 55 19c-3 10-53 27-139 27z m87-112c-6 0-11 4-12 10c-1 5 3 11 9 12c99 12 151 44 151 69c0 35-97 75-235 75c-138 0-235-40-235-75c0-25 52-57 151-69c6-1 10-7 9-12c-1-6-6-10-12-10c-82 11-169 40-169 91c0 47 90 96 256 96c166 0 256-49 256-96c0-51-87-80-169-91z"/>
    </symbol>
  
    <symbol id="icon-times" viewBox="0 0 512 512">
      <path d="m426 378c0 7-3 14-8 19l-39 39c-5 5-12 8-20 8-7 0-14-3-19-8l-84-84-84 84c-5 5-12 8-19 8-8 0-15-3-20-8l-39-39c-5-5-8-12-8-19 0-8 3-14 8-20l84-84-84-84c-5-5-8-12-8-19 0-8 3-14 8-20l39-38c5-6 12-8 20-8 7 0 14 2 19 8l84 84 84-84c5-6 12-8 19-8 8 0 15 2 20 8l39 38c5 6 8 12 8 20 0 7-3 14-8 19l-84 84 84 84c5 6 8 12 8 20z"/>
    </symbol>
  
    <symbol id="icon-list-2" viewBox="0 0 512 512">
      <path d="m111 51l-102 0c-5 0-9 4-9 9l0 102c0 5 4 9 9 9l102 0c5 0 8-4 8-9l0-102c0-5-3-9-8-9z m-9 103l-85 0l0-86l85 0z m9 51l-102 0c-5 0-9 4-9 8l0 103c0 4 4 8 9 8l102 0c5 0 8-4 8-8l0-103c0-4-3-8-8-8z m-9 102l-85 0l0-85l85 0z m9 51l-102 0c-5 0-9 4-9 9l0 102c0 5 4 9 9 9l102 0c5 0 8-4 8-9l0-102c0-5-3-9-8-9z m-9 103l-85 0l0-86l85 0z m401-359l-324 0c-5 0-8 4-8 9c0 5 3 8 8 8l324 0c5 0 9-3 9-8c0-5-4-9-9-9z m0 154l-324 0c-5 0-8 4-8 9c0 4 3 8 8 8l324 0c5 0 9-4 9-8c0-5-4-9-9-9z m0 154l-324 0c-5 0-8 3-8 8c0 5 3 9 8 9l324 0c5 0 9-4 9-9c0-5-4-8-9-8z"/>
    </symbol>
  
    <symbol id="icon-cash" viewBox="0 0 512 512">
      <path d="m0 96l0 256 512 0 0-256z m193 224l-113 0c0-27-21-48-48-48l0-80c35 0 64-29 64-64l97 0c-20 23-33 58-33 96 0 38 13 73 33 96z m105-59c-2 4-6 8-10 11-4 2-9 4-14 5-3 1-6 1-9 2l0 9-18 0 0-9c-3-1-5-1-8-2-6-1-11-4-15-7-4-3-8-6-10-11-2-5-4-11-4-16l20 0c0 3 1 7 2 9 1 3 4 5 6 7 3 2 6 3 9 4l0-35c-2 0-5-1-8-1-5-2-9-3-12-5-3-2-6-4-8-7-1-2-3-4-4-7 0-3-1-5-1-8 0-5 1-10 4-14 2-4 5-7 9-10 4-2 9-4 14-5 2-1 4-1 6-2l0-9 18 0 0 10c2 0 5 0 7 1 5 1 10 4 14 6 4 3 7 7 9 11 2 4 4 8 4 13l-20 0c-1-6-3-10-7-13-2-1-5-2-7-3l0 31c3 0 5 1 8 1 3 1 6 2 7 2 4 1 7 3 10 5 2 2 5 4 7 6 1 3 3 5 4 8 1 3 1 5 1 8 0 6-1 11-4 15z m182 11c-26 0-48 21-48 48l-113 0c20-23 33-58 33-96 0-38-13-73-33-96l97 0c0 35 29 64 64 64z m-352-48c0 18-14 32-32 32-18 0-32-14-32-32 0-18 14-32 32-32 18 0 32 14 32 32z m320 0c0 18-14 32-32 32-18 0-32-14-32-32 0-18 14-32 32-32 18 0 32 14 32 32z m-175 11c-3-1-5-1-8-2l0 31c2-1 3-1 4-1 3-1 6-2 8-4 2-1 3-3 4-5 1-2 1-4 1-6 0-4-1-7-3-9-2-2-4-3-6-4z m-37-44c-1 2-2 4-2 7 0 3 1 6 4 8 2 2 5 4 9 5l0-26c-2 0-4 1-6 2-2 1-4 2-5 4z m-236 193l512 0 0 32-512 0z"/>
    </symbol>
  
    <symbol id="icon-banknote" viewBox="0 0 512 512">
      <path d="m503 169l-160-160c-8-8-20-11-31-8c-5 1-11 4-15 8c-3 4-6 9-8 14c-7 23-19 43-38 62c-25 25-57 43-91 63c-36 21-74 43-104 74c-26 26-44 55-55 89c-3 11 0 23 8 32l160 160c8 8 20 11 31 8c5-1 11-4 15-8c3-4 6-8 8-14c7-23 19-43 38-62c25-25 57-43 91-63c36-21 74-43 104-74c26-26 44-55 55-89c3-11 0-23-8-32z m-311 311c-53-53-107-107-160-160c45-147 243-141 288-288c53 53 107 107 160 160c-45 147-243 141-288 288z m121-242c-5-4-10-7-16-8c-5-2-10-2-16-2c-5 0-10 2-16 4c-5 2-10 4-16 7c-8-10-17-20-26-29c4-4 8-5 12-6c3 0 7 1 10 2c3 0 7 1 9 2c3 0 6 0 8-2c2-2 4-5 4-8c0-3-1-6-4-9c-3-4-7-6-12-7c-5-1-10-1-15 0c-5 1-10 3-15 6c-4 3-8 5-10 8c-2-1-3-2-4-3c-1-1-2-2-4-2c-2 0-3 1-4 3c-1 1-2 2-2 4c0 2 1 3 2 4c1 1 2 2 3 3c-4 5-7 10-10 16c-2 6-4 11-5 17c0 6 0 11 2 15c2 5 5 9 10 13c7 6 16 9 26 8c11 0 22-3 33-10c10 11 19 22 29 32c-4 4-8 6-11 6c-3 1-6 1-8 0c-3-1-5-2-7-3c-2-2-4-3-6-4c-2-1-5-2-7-2c-2 0-4 1-7 3c-2 3-4 5-4 8c0 3 2 6 4 9c3 4 7 6 11 8c4 2 9 3 14 4c6 0 11-1 17-3c6-2 12-6 18-12c2 3 5 6 8 8c1 1 3 2 4 2c2-1 4-1 5-3c1-1 1-3 1-4c0-2-1-3-2-4c-3-3-5-5-8-7c5-6 8-12 11-19c3-6 5-12 5-17c1-6 0-11-1-15c-2-5-5-9-10-13z m-89 11c-5 0-9-1-12-4c-2-2-3-4-4-6c0-2 0-4 0-6c0-3 1-5 2-8c1-2 3-5 5-7c8 8 16 17 25 26c-7 3-12 5-16 5z m75 32c-1 3-3 5-5 7c-9-9-18-19-27-29c2-1 5-2 7-3c3-1 6-2 8-2c3-1 5-1 8 0c3 1 5 2 7 4c3 3 4 5 5 7c0 3 0 6 0 8c-1 3-2 6-3 8z m-64 74l0 0c-10 8-19 16-28 25c-9 8-17 18-24 27l-11 15l0 0c-2 3-1 7 1 10c4 3 9 3 12 0c0-1 1-1 1-2l10-14c7-8 14-17 22-25c9-9 17-16 27-24l0 0c1 0 1 0 1 0c3-3 3-8 0-12c-3-3-7-3-11 0z m59-232c-8 9-17 16-27 24c0 0-1 0-2 1c-3 3-3 8 0 11c3 3 8 3 12 1l0 0c10-8 19-16 28-25c9-9 17-18 24-27l11-15l0 0c2-4 2-8-1-11c-3-4-8-4-11 0c-1 0-1 1-2 2l-10 14c-7 9-14 17-22 25z"/>
    </symbol>
  
    <symbol id="icon-instagram" viewBox="0 0 512 512">
      <path d="m426 407l0-185-39 0c4 12 6 25 6 38 0 24-6 46-18 66-13 20-29 36-50 48-21 12-44 18-69 18-37 0-69-13-96-39-27-26-40-57-40-93 0-13 2-26 6-38l-41 0 0 185c0 5 2 10 5 13 4 3 8 5 13 5l305 0c5 0 9-2 13-5 3-3 5-8 5-13z m-81-152c0-23-9-44-26-60-18-17-38-25-63-25-24 0-45 8-62 25-17 16-26 37-26 60 0 24 9 44 26 61 17 16 38 25 62 25 25 0 45-9 63-25 17-17 26-37 26-61z m81-103l0-47c0-5-2-10-6-14-4-4-8-6-14-6l-50 0c-5 0-10 2-14 6-4 4-5 9-5 14l0 47c0 6 1 10 5 14 4 4 9 6 14 6l50 0c6 0 10-2 14-6 4-4 6-8 6-14z m49-59l0 326c0 16-5 29-16 40-11 11-24 16-40 16l-326 0c-16 0-29-5-40-16-11-11-16-24-16-40l0-326c0-16 5-29 16-40 11-11 24-16 40-16l326 0c16 0 29 5 40 16 11 11 16 24 16 40z"/>
    </symbol>
  
    <symbol id="icon-youtube-play" viewBox="0 0 512 512">
      <path d="m366 256c0-7-3-12-9-15l-146-92c-6-4-12-4-19 0-6 3-9 8-9 16l0 182c0 8 3 13 9 16 3 2 6 3 9 3 4 0 7-1 10-3l146-92c6-3 9-8 9-15z m146 0c0 18 0 33 0 43 0 10-1 23-3 39-1 16-3 30-6 42-3 14-10 26-20 35-10 10-22 15-35 17-43 4-106 7-192 7-86 0-149-3-192-7-13-2-25-7-35-17-10-9-17-21-20-35-3-12-5-26-6-42-2-16-3-29-3-39 0-10 0-25 0-43 0-18 0-33 0-43 0-10 1-23 3-39 1-16 3-30 6-42 3-14 10-26 20-35 10-10 22-15 35-17 43-4 106-7 192-7 86 0 149 3 192 7 13 2 25 7 35 17 10 9 17 21 20 35 3 12 5 26 6 42 2 16 3 29 3 39 0 10 0 25 0 43z"/>
    </symbol>
  
    <symbol id="icon-social-blogger" viewBox="0 0 512 512">
      <path d="m380 72l-247 0c-34 0-61 27-61 61l0 246c0 34 27 61 61 61l247 0c33 0 60-27 60-61l0-246c0-34-27-61-60-61z m-12 225c0 39-32 71-72 71l-82 0c-39 0-71-32-71-71l0-83c0-40 32-72 71-72l50 0c19 2 46 18 55 39c3 6 5 7 7 24c1 9 2 16 6 20c5 5 26 1 30 5l4 2l2 4l0 3z m-153-69l40 0c7 0 14-6 14-14c0-7-7-13-14-13l-40 0c-7 0-13 6-13 13c0 8 6 14 13 14z m81 54l-81 0c-7 0-13 6-13 14c0 7 6 13 13 13l81 0c7 0 13-6 13-13c0-8-6-14-13-14z"/>
    </symbol>
  
    <symbol id="icon-files-1" viewBox="0 0 512 512">
      <path d="m441 122c0 0 0 0 0 0l-117-117c-2-3-5-5-8-5c0 0-1 0-1 0c0 0 0 0 0 0l-170 0c-5 0-8 4-8 9l0 59l-60 0c-5 0-9 4-9 9l0 426c0 5 4 9 9 9l307 0c5 0 9-4 9-9l0-59l42 0c5 0 9-4 9-9l0-307c0-1 0-2-1-3c0-1-1-2-2-3z m-117-92l90 89l-90 0z m51 465l-290 0l0-410l52 0l0 350c0 5 3 9 8 9l230 0z m-221-68l0-410l153 0l0 111c0 5 4 9 9 9l111 0l0 290z"/>
    </symbol>
  
    <symbol id="icon-file-image-1" viewBox="0 0 512 512">
      <path d="m60 512l375 0c5 0 9-4 9-9l0-358c0-1 0-2-1-3c0-1-1-2-2-3c0 0 0 0 0 0l-134-134c-2-3-5-5-8-5c-1 0-1 0-1 0c0 0 0 0 0 0l-238 0c-5 0-9 4-9 9l0 494c0 5 4 9 9 9z m247-482l107 107l-107 0z m-239-13l222 0l0 128c0 5 4 9 9 9l128 0l0 341l-359 0z m230 236c-1-3-4-5-7-6c-4 0-7 2-8 5l-63 110l-35-35c-2-2-4-3-7-3c-3 1-5 2-6 5l-60 102c-1 3-1 6 0 8c2 3 4 5 7 5l248 0c3 0 5-2 7-4c2-2 2-6 1-8z m-164 174l47-80l35 35c2 1 4 2 7 2c3 0 5-2 6-4l60-105l65 152z m20-180c23 0 42-19 42-42c0-24-19-43-42-43c-24 0-43 19-43 43c0 23 19 42 43 42z m0-68c14 0 25 12 25 26c0 14-11 25-25 25c-15 0-26-11-26-25c0-14 11-26 26-26z"/>
    </symbol>
  
    <symbol id="icon-photos-2" viewBox="0 0 512 512">
      <path d="m439 147l-12-2l0 282l-302 0l-5 34l341 31l31-340z m-34 194l-384 0l0 64l384 0z m-254-122c2-3 5-5 8-6c4 0 7 2 9 4l43 51l46-102c2-4 6-6 10-6c4 0 8 3 10 7l61 153l67 0l0-299l-384 0l0 299l69 0z m-23-134c24 0 43 19 43 43c0 24-19 43-43 43c-24 0-43-19-43-43c0-24 19-43 43-43z"/>
    </symbol>
  
    <symbol id="icon-text-wrapping-3" viewBox="0 0 512 512">
      <path d="m503 0l-494 0c-5 0-9 4-9 9l0 494c0 5 4 9 9 9l494 0c5 0 9-4 9-9l0-494c0-5-4-9-9-9z m-332 435c0 5-4 9-9 9l-85 0c-5 0-9-4-9-9l0-85c0-5 4-9 9-9l85 0c5 0 9 4 9 9z m0-136c0 4-4 8-9 8l-85 0c-5 0-9-4-9-8l0-86c0-4 4-8 9-8l85 0c5 0 9 4 9 8z m0-137c0 5-4 9-9 9l-85 0c-5 0-9-4-9-9l0-85c0-5 4-9 9-9l85 0c5 0 9 4 9 9z m196 248l-137 0c-4 0-8-4-8-9c0-5 4-8 8-8l137 0c5 0 8 3 8 8c0 5-3 9-8 9z m68-69l-205 0c-4 0-8-3-8-8c0-5 4-9 8-9l205 0c5 0 9 4 9 9c0 5-4 8-9 8z m0-68l-205 0c-4 0-8-4-8-8c0-5 4-9 8-9l205 0c5 0 9 4 9 9c0 4-4 8-9 8z m0-68l-205 0c-4 0-8-4-8-9c0-4 4-8 8-8l205 0c5 0 9 4 9 8c0 5-4 9-9 9z m0-68l-136 0c-5 0-9-4-9-9c0-5 4-9 9-9l136 0c5 0 9 4 9 9c0 5-4 9-9 9z"/>
    </symbol>
  
    <symbol id="icon-check-shield" viewBox="0 0 512 512">
      <path d="m460 0l-408 0c-5 0-9 4-9 9l0 156c0 146 80 278 209 346c1 1 3 1 4 1c1 0 3 0 4-1c129-68 209-200 209-346l0-156c0-5-4-9-9-9z m-80 155l-161 150c-2 2-4 3-6 3c-2 0-4-1-6-3l-54-54c-3-3-3-8 0-12c4-3 9-3 12 0l48 48l156-145c3-3 8-3 12 1c3 3 3 8-1 12z"/>
    </symbol>
  
    <symbol id="icon-pen" viewBox="0 0 512 512">
      <path d="m470 41c-26-26-61-41-95-41c-29 0-55 11-75 30l-77 78c-1 1-1 1-1 1c0 0 0 0 0 1l0 0l-166 166c-7 8-13 17-16 27l-38 137c0 0-2 11-2 16c0 31 25 56 56 56c6 0 18-3 19-3l135-36c11-3 20-8 28-16l244-246c44-45 39-119-12-170z m-214 340c-1-15-5-29-11-42l151-152c9 30 4 60-16 80c0 1 0 1 0 1l0 0l-124 125c0-4 1-8 0-12z m-19-57c-6-10-13-19-21-28c-10-9-21-17-33-23l152-153c12 5 24 13 34 23c9 9 15 18 20 28z m-69-59c-15-6-31-9-46-10l123-124c19-18 46-23 74-17z m-101 213c-2 0-7 2-11 2c-13 0-24-11-24-24c0-3 1-7 2-9l16-61c19-1 38 7 54 22c16 16 23 36 22 54z m75-20c0-21-9-44-27-61c-16-17-38-27-60-27l16-58c1-4 3-8 6-11c32-23 82-16 116 18c36 36 42 89 14 121c-2 1-4 2-6 3z m317-270l-27 28c0-4 1-8 0-11c-3-31-17-61-40-85c-27-26-61-41-95-41l26-26c13-14 32-21 52-21c26 0 52 12 73 32c19 19 30 43 32 67c1 22-6 42-21 57z"/>
    </symbol>
  
    <symbol id="icon-check-bubble" viewBox="0 0 512 512">
      <path d="m512 256c0-19-11-37-27-45c11-15 15-35 8-53c-8-18-24-30-43-31c5-18 1-38-13-52c-10-10-23-15-36-15c-6 0-11 1-16 2c-1-18-13-35-31-42c-18-8-38-4-53 7c-8-16-26-27-45-27c-19 0-37 11-46 27c-14-11-34-15-52-7c-18 7-30 24-32 42c-4-1-10-2-15-2c-13 0-26 5-36 15c-14 14-18 34-13 52c-19 1-35 13-42 31c-8 18-5 38 7 53c-16 8-27 26-27 45c0 19 11 37 27 45c-12 15-15 35-8 53c8 18 24 30 43 32c-5 17-1 37 13 51c10 10 23 15 36 15c5 0 11-1 15-2c2 18 14 35 32 43c18 7 38 3 53-8c8 16 26 27 45 27c19 0 37-11 45-27c15 11 35 15 53 8c18-8 30-25 31-43c5 1 10 2 16 2c13 0 26-5 36-15c14-14 18-34 13-51c19-2 35-14 43-32c7-18 4-38-8-52c16-9 27-27 27-46z m-143-69l-161 151c-2 1-4 2-6 2c-2 0-4-1-6-3l-54-53c-3-4-3-9 0-13c4-3 9-3 12 0l48 48l156-145c3-3 9-3 12 1c3 3 3 9-1 12z"/>
    </symbol>
  
    <symbol id="icon-arrow-circle-2" viewBox="0 0 512 512">
      <path d="m256 0c-141 0-256 115-256 256c0 141 115 256 256 256c141 0 256-115 256-256c0-141-115-256-256-256z m178 264l-160 159c-2 2-5 4-7 4c-2 0-3-1-4-1c-4-2-7-6-7-10l0-96l-160 0c-3 0-5-1-7-3c-2-2-4-5-4-8l0-106c0-6 5-11 11-11l160 0l0-96c0-4 3-8 7-10c4-1 8 0 11 3l160 159c4 5 4 11 0 16z"/>
    </symbol>
  
    <symbol id="icon-layers" viewBox="0 0 512 512">
      <path d="m500 351l-244 109l-244-109c-4-2-9 0-11 4c-2 4 0 9 4 11l248 111c1 1 2 1 3 1c1 0 2 0 3-1l248-111c4-2 6-7 4-11c-2-4-7-6-11-4z m0-69l-244 110l-244-110c-4-2-9 0-11 5c-2 4 0 9 4 11l248 111c1 0 2 1 3 1c1 0 2-1 3-1l248-111c4-2 6-7 4-11c-2-5-7-7-11-5z m0-68l-244 109l-244-109c-4-2-9 0-11 4c-2 5 0 10 4 12l248 111c1 0 2 0 3 0c1 0 2 0 3 0l248-111c4-2 6-7 4-12c-2-4-7-6-11-4z m-495-53l248 111c1 1 2 1 3 1c1 0 2 0 3-1l248-111c3-1 5-4 5-7c0-4-2-7-5-8l-248-111c-2-1-4-1-6 0l-248 111c-3 1-5 4-5 8c0 3 2 6 5 7z m251-109l227 102l-227 101l-227-101z"/>
    </symbol>
  
    <symbol id="icon-circle" viewBox="0 0 512 512">
      <path d="m475 256c0 40-9 77-29 110c-20 34-46 60-80 80c-33 20-70 29-110 29c-40 0-77-9-110-29c-34-20-60-46-80-80c-20-33-29-70-29-110c0-40 9-77 29-110c20-34 46-60 80-80c33-20 70-29 110-29c40 0 77 9 110 29c34 20 60 46 80 80c20 33 29 70 29 110z"/>
    </symbol>
  
    <symbol id="icon-bulb" viewBox="0 0 512 512">
      <path d="m256 0c-97 0-176 79-176 176c0 64 59 133 80 193c33 89 29 143 96 143c68 0 63-53 96-143c21-60 80-129 80-193c0-97-79-176-176-176z m41 435l-79 10c-3-8-6-18-9-31c0 0-1 0-1 0l99-12c-1 4-2 9-4 14c-2 7-4 13-6 19z m-93-36c-3-10-6-20-10-31l124 0c-2 6-4 12-5 17z m52 81c-16 0-24-2-32-20l68-8c-10 26-17 28-36 28z m75-144l-150 0c-8-17-17-35-27-51c-20-38-42-76-42-109c0-79 65-144 144-144c79 0 144 65 144 144c0 32-22 71-42 109c-10 17-19 34-27 51z m-75-256c-53 0-96 43-96 96c0 4 4 8 8 8c4 0 8-4 8-8c0-44 36-80 80-80c4 0 8-4 8-8c0-4-4-8-8-8z"/>
    </symbol>
  
    <symbol id="icon-files" viewBox="0 0 512 512">
      <path d="m485 110c7 0 14 2 19 8c5 5 8 12 8 19l0 348c0 7-3 14-8 19c-5 5-12 8-19 8l-275 0c-7 0-14-3-19-8c-5-5-8-12-8-19l0-83l-156 0c-7 0-14-2-19-8c-5-5-8-12-8-19l0-192c0-8 2-16 6-25c4-9 8-17 13-22l117-117c5-5 13-9 22-13c9-4 17-6 25-6l119 0c7 0 14 3 19 8c5 5 8 12 8 19l0 94c13-7 25-11 37-11z m-156 61l-85 85l85 0z m-183-110l-85 85l85 0z m56 185l91-91l0-118l-110 0l0 118c0 8-3 15-8 20c-5 5-12 8-20 8l-118 0l0 183l146 0l0-73c0-8 2-16 6-26c3-9 8-16 13-21z m273 229l0-329l-109 0l0 119c0 8-3 14-8 20c-6 5-12 8-20 8l-119 0l0 182z"/>
    </symbol>
  
    <symbol id="icon-align-justify" viewBox="0 0 512 512">
      <path d="m64 43l0 448l363 0l0-448z m320 405l-277 0l0-363l277 0z m-43-299l-192 0l0 43l192 0z m0 64l-192 0l0 22l192 0z m0 43l-192 0l0 21l192 0z m0 43l-192 0l0 21l192 0z m0 42l-192 0l0 22l192 0z"/>
    </symbol>
  
    <symbol id="icon-folder-open" viewBox="0 0 512 512">
      <path d="m519 272c0 6-3 12-9 19l-96 113c-8 10-20 18-35 25-14 6-28 10-41 10l-311 0c-6 0-12-1-17-4-5-2-7-6-7-12 0-6 3-12 8-19l96-113c9-10 20-18 35-25 15-7 28-10 41-10l311 0c6 0 12 1 17 4 5 2 8 6 8 12z m-98-98l0 45-238 0c-18 0-37 5-56 14-20 9-36 20-47 34l-97 113-1 2c0-1 0-2 0-4 0-1 0-2 0-3l0-274c0-18 6-33 19-46 12-12 27-18 45-18l91 0c18 0 33 6 45 18 13 13 19 28 19 46l0 9 156 0c17 0 32 6 45 19 12 12 19 27 19 45z"/>
    </symbol>
  
    <symbol id="icon-link" viewBox="0 0 512 512">
      <path d="m434 347c0-7-2-14-8-19l-59-59c-5-6-12-8-20-8c-8 0-14 3-20 9c0 0 2 2 5 5c3 3 5 5 6 6c1 1 3 3 5 6c2 2 3 4 3 7c1 2 1 5 1 8c0 7-2 14-8 19c-5 5-11 8-19 8c-3 0-5 0-8-1c-2-1-5-2-7-4c-3-1-4-3-6-4c-1-1-3-3-6-6c-3-3-4-5-5-5c-6 5-9 12-9 20c0 8 2 15 8 20l58 59c6 5 12 8 20 8c7 0 14-3 19-8l42-41c6-6 8-12 8-20z m-201-201c0-8-2-14-8-19l-58-60c-6-5-12-8-20-8c-7 0-14 3-19 8l-42 42c-6 5-8 12-8 19c0 8 2 14 8 19l59 60c5 5 12 8 20 8c8 0 14-3 20-9c0-1-2-3-5-6c-3-3-5-5-6-6c-1-1-3-3-5-5c-2-3-3-5-3-7c-1-3-1-5-1-8c0-8 2-14 8-20c5-5 11-8 19-8c3 0 5 1 8 1c2 1 5 2 7 4c3 2 4 3 6 4c1 1 3 3 6 6c3 3 4 5 5 6c6-6 9-13 9-21z m256 201c0 23-8 43-24 58l-42 42c-16 16-35 24-58 24c-23 0-43-8-58-24l-59-60c-16-15-24-35-24-58c0-23 8-43 25-59l-25-25c-16 16-36 25-59 25c-23 0-43-8-59-24l-59-60c-16-16-24-35-24-58c0-23 8-42 24-58l42-42c16-16 35-23 58-23c23 0 43 8 58 24l59 59c16 16 24 35 24 58c0 23-8 43-25 60l25 25c16-17 36-25 59-25c23 0 43 8 59 24l59 59c16 16 24 36 24 58z"/>
    </symbol>
  
    <symbol id="icon-external-link" viewBox="0 0 512 512">
      <path d="m402 265l0 92c0 22-8 42-24 58c-16 16-35 24-58 24l-238 0c-22 0-42-8-58-24c-16-16-24-36-24-58l0-238c0-23 8-42 24-58c16-16 36-24 58-24l201 0c3 0 5 0 7 2c2 2 3 4 3 7l0 18c0 3-1 5-3 7c-2 1-4 2-7 2l-201 0c-12 0-23 5-32 14c-9 9-13 19-13 32l0 238c0 12 4 23 13 32c9 9 20 13 32 13l238 0c13 0 23-4 32-13c9-9 14-20 14-32l0-92c0-3 1-5 2-6c2-2 4-3 7-3l18 0c3 0 5 1 7 3c1 1 2 3 2 6z m110-247l0 147c0 5-2 9-5 12c-4 4-8 6-13 6c-5 0-10-2-13-6l-50-50l-187 186c-2 2-4 3-6 3c-3 0-5-1-7-3l-32-32c-2-2-3-4-3-7c0-2 1-4 3-6l186-187l-50-50c-4-3-6-8-6-13c0-5 2-9 6-13c3-3 7-5 12-5l147 0c5 0 9 2 13 5c3 4 5 8 5 13z"/>
    </symbol>
  
    <symbol id="icon-file-upload" viewBox="0 0 512 512">
      <path d="m21 21l214 0l0 96c0 6 4 11 10 11l96 0l0 75l22 0l0-86c0 0 0 0 0 0c0 0 0 0 0 0c0-1-1-2-1-3c0 0 0 0 0-1c-1-1-2-2-3-3l-106-107c-1-1-2-2-4-2c-1-1-2-1-4-1l-234 0c-6 0-11 5-11 11l0 448c0 6 5 10 11 10l213 0l0-21l-203 0z m235 15l70 71l-70 0z m117 199c-76 0-138 62-138 138c0 77 62 139 138 139c77 0 139-62 139-139c0-76-62-138-139-138z m0 256c-64 0-117-53-117-118c0-64 53-117 117-117c65 0 118 53 118 117c0 65-53 118-118 118z m8-183c0 0 0 0 0 0l-8-8l-7 8c0 0 0 0 0 0l-47 46c-4 4-4 11 0 15c4 4 11 4 15 0l29-28l0 90c0 6 4 11 10 11c6 0 11-5 11-11l0-90l28 28c2 2 5 3 8 3c3 0 5-1 7-3c5-4 5-11 0-15z"/>
    </symbol>
  
    <symbol id="icon-pencil-3" viewBox="0 0 512 512">
      <path d="m479 69l-36-36c-21-20-55-20-75 0l-322 322c-1 1-2 3-3 4c0 0 0 0 0 1l-43 138c-1 4 0 8 3 11c2 2 5 3 8 3c1 0 2 0 3 0l138-43c1 0 1 0 1 0c0 0 0-1 1-1c1 0 2-1 3-2l322-322c21-20 21-54 0-75z m-74 119l-40-41l-41-40l17-17l81 81z m-326 281l-36-36l15-50l9 9c2 2 5 3 8 3l42 0l0 42c0 3 1 6 3 8l9 9z m45-96l-45 0l-11-10l241-241l33 33z m-88 83l20 20l-29 9z m113-12l-10-11l0-45l218-218l33 33z m315-315l-27 27l-81-81l27-27c12-12 32-12 45 0l36 36c12 13 12 33 0 45z"/>
    </symbol>
  
    <symbol id="icon-globe" viewBox="0 0 512 512">
      <path d="m256 10c68 0 126 24 174 72c48 49 72 106 72 174c0 68-24 126-72 174c-48 48-106 72-174 72c-68 0-125-24-174-72c-48-48-72-106-72-174c0-68 24-125 72-174c49-48 106-72 174-72m210 246c0-45-13-86-40-122c-27-37-61-62-103-77c-7 9-9 14-9 17c2 13 5 21 10 26c4 4 9 5 15 3c0 0 16-6 16-6c0 0 4 0 11-1c7 8 7 16 0 24c-8 8-16 18-23 29c-8 11-8 24-1 39c12 22 28 33 49 33c10 1 17 7 22 19c5 11 8 22 9 33c3 28 1 52-7 72c-8 15-5 28 7 39c29-38 44-81 44-128m-239-207c-38 5-72 19-102 43c-29 24-51 54-65 89c2 0 6 1 12 1c5 1 10 1 14 2c4 0 9 1 13 2c5 1 9 2 13 4c3 2 5 4 6 7c1 4-1 11-7 23c-7 11-10 21-10 31c0 10 7 20 20 29c13 8 19 16 19 23c0 10 2 21 4 35c3 14 4 21 4 22c0 5 7 14 19 28c12 14 21 22 27 22c3 0 5-4 5-12c1-7 0-16-1-27c-1-11-1-18-1-21c0-11 2-23 7-38c4-14 14-26 30-36c16-9 25-17 28-23c6-12 7-22 5-31c-3-10-6-17-9-22c-3-6-9-11-17-15c-9-4-16-7-21-8c-6-2-12-4-19-5c-7-1-11-2-12-2c-5-2-12-3-21-4c-9 0-15 1-18 2c-4 1-9-1-14-6c-6-5-9-10-9-15c0-3 3-8 8-13c5-6 11-12 18-19c6-7 11-12 14-16c3-4 6-8 9-10c3-3 6-6 11-9c4-3 9-6 14-10c1-2 5-5 13-9c7-5 11-8 13-12m-37 407c23 7 45 10 66 10c44 0 82-12 116-35c-9-15-29-21-61-17c-8 0-19 3-33 8c-14 6-22 8-24 9c-25 6-38 8-39 8c-4 1-8 3-13 7c-5 5-9 8-12 10"/>
    </symbol>
  
    <symbol id="icon-ios-pricetag" viewBox="0 0 512 512">
      <path d="m384 128c0 9-7 16-16 16-9 0-16-7-16-16 0-9 7-16 16-16 9 0 16 7 16 16z m-80-96l-256 288 160 160 256-288 0-160z m64 128c-18 0-32-14-32-32 0-18 14-32 32-32 18 0 32 14 32 32 0 18-14 32-32 32z"/>
    </symbol>
  
    <symbol id="icon-usd" viewBox="0 0 512 512">
      <path d="m389 339c0 29-9 54-28 75-19 21-44 34-74 39l0 50c0 3-1 5-3 6-1 2-4 3-6 3l-39 0c-2 0-4-1-6-3-2-2-3-4-3-6l0-50c-13-2-25-5-36-9-12-4-22-8-29-13-8-4-15-9-22-13-6-5-10-9-13-11-2-2-4-4-5-5-3-4-3-8 0-12l29-39c1-1 4-3 7-3 2 0 5 0 6 3l1 0c22 19 45 31 69 36 7 1 15 2 22 2 15 0 29-4 40-12 12-8 18-20 18-35 0-5-2-10-4-15-3-5-6-9-10-12-4-3-9-7-17-11-7-4-14-7-19-9-5-2-12-5-22-9-8-3-14-6-18-7-4-2-10-5-18-8-7-3-13-6-17-9-5-2-10-6-17-10-6-4-11-8-15-12-4-4-8-9-12-14-5-6-8-11-10-17-3-5-5-12-6-19-2-7-3-14-3-22 0-26 9-49 28-69 19-20 43-33 73-38l0-52c0-2 1-4 3-6 2-2 4-3 6-3l39 0c2 0 5 1 6 3 2 1 3 3 3 6l0 50c11 2 21 4 31 7 11 3 19 6 25 10 7 3 13 6 18 10 6 4 10 7 12 9 1 1 3 2 4 4 3 3 4 7 1 10l-23 42c-1 3-4 5-6 5-3 0-6 0-8-2-1-1-2-2-4-4-2-1-6-4-11-7-6-4-11-7-17-9-6-3-13-6-21-8-9-2-17-3-25-3-18 0-33 4-44 12-12 8-17 19-17 32 0 5 1 9 2 14 2 4 5 8 9 11 4 4 7 7 11 10 3 2 9 5 16 9 7 3 13 6 17 7 5 2 11 5 20 8 10 4 18 7 23 9 6 2 13 6 22 10 9 5 16 9 22 12 5 4 11 9 17 15 7 6 12 12 15 18 4 6 7 13 9 22 3 8 4 17 4 27z"/>
    </symbol>
  
    <symbol id="icon-exclamation" viewBox="0 0 512 512">
      <path d="m311 357l0 64c0 5-2 9-6 12-3 4-7 6-12 6l-74 0c-5 0-9-2-12-6-4-3-6-7-6-12l0-64c0-5 2-10 6-13 3-4 7-6 12-6l74 0c5 0 9 2 12 6 4 3 6 8 6 13z m8-302l-8 219c0 5-2 10-5 13-4 4-8 6-13 6l-74 0c-5 0-9-2-13-6-3-3-5-8-5-13l-8-219c-1-5 1-9 5-13 3-4 7-5 12-5l92 0c5 0 9 1 12 5 4 4 6 8 5 13z"/>
    </symbol>
  
    <symbol id="icon-information" viewBox="0 0 512 512">
      <path d="m245 0c-135 0-245 110-245 245c0 136 110 246 245 246c136 0 246-110 246-246c0-135-110-245-246-245z m0 469c-123 0-224-100-224-224c0-123 101-224 224-224c124 0 224 101 224 224c0 124-100 224-224 224z m64-85l-53 0l0-181c0-6-5-11-11-11l-42 0c-6 0-11 5-11 11c0 6 5 10 11 10l32 0l0 171l-54 0c-6 0-10 5-10 11c0 6 4 10 10 10l128 0c6 0 11-4 11-10c0-6-5-11-11-11z m-85-256c12 0 21-10 21-21c0-12-9-22-21-22c-12 0-21 10-21 22c0 11 9 21 21 21z m0-21l0 10l0-10z"/>
    </symbol>
  
    <symbol id="icon-checkmark" viewBox="0 0 512 512">
      <path d="m462 110l-55-44c-2-1-4-2-6-2-3 0-5 1-7 2l-199 257c0 0-79-75-81-78-2-2-5-6-10-6-4 0-6 4-8 6-2 2-30 31-44 46-1 1-1 1-2 2-1 1-2 3-2 5 0 3 1 4 2 6l3 3c0 0 139 134 142 136 2 2 5 5 9 5 4 0 7-4 9-6l249-320c1-2 2-4 2-6 0-2-1-5-2-6z"/>
    </symbol>
  
    <symbol id="icon-camera" viewBox="0 0 512 512">
      <path d="m256 160c-71 0-128 57-128 128c0 71 57 128 128 128c71 0 128-57 128-128c0-71-57-128-128-128z m73 190c-35 41-95 45-135 11c-41-35-45-95-11-135c35-41 95-45 135-11c41 35 45 95 11 135z m-73-126c-35 0-64 29-64 64l0 0c0 4 4 8 8 8c4 0 8-4 8-8l0 0c0-26 21-48 48-48c4 0 8-4 8-8c0-4-4-8-8-8z m216-79l-69-12l-22-55c-8-18-25-30-45-30l-160 0c-20 0-37 12-45 30l-22 55l-69 12c-23 4-40 23-40 47l0 240c0 26 22 48 48 48l416 0c26 0 48-22 48-48l0-240c0-24-17-43-40-47z m8 287c0 9-7 16-16 16l-416 0c-9 0-16-7-16-16l0-240c0-8 6-14 13-16l87-14l29-72c3-6 8-10 15-10l160 0c7 0 12 4 15 10l29 72l87 14c7 2 13 8 13 16z"/>
    </symbol>
  
    <symbol id="icon-log-out" viewBox="0 0 512 512">
      <path d="m201 411c0 1 0 3 0 6c1 3 1 6 1 8c-1 2-1 4-1 6c-1 3-2 5-3 6c-2 1-4 2-6 2l-91 0c-23 0-42-8-59-24c-16-16-24-36-24-58l0-202c0-22 8-42 24-58c17-16 36-24 59-24l91 0c2 0 5 1 6 3c2 2 3 4 3 6c0 1 0 3 0 6c1 3 1 6 1 8c-1 2-1 4-1 6c-1 3-2 5-3 6c-2 1-4 2-6 2l-91 0c-13 0-24 4-33 13c-9 9-13 20-13 32l0 202c0 12 4 23 13 32c9 9 20 13 33 13l89 0c0 0 1 0 3 1c2 0 3 0 3 0c0 1 1 1 3 2c1 1 2 2 2 3c-1 1 0 2 0 3z m265-155c0 5-2 9-5 13l-156 155c-3 4-7 6-12 6c-5 0-10-2-13-6c-4-3-6-8-6-13l0-82l-128 0c-5 0-9-2-13-5c-3-4-5-8-5-13l0-110c0-5 2-9 5-13c4-3 8-5 13-5l128 0l0-82c0-5 2-10 6-13c3-4 8-6 13-6c5 0 9 2 12 6l156 155c3 4 5 8 5 13z"/>
    </symbol>
  
    <symbol id="icon-video-camera-1" viewBox="0 0 512 512">
      <path d="m277 299l-149 0c-24 0-43 19-43 42c0 24 19 43 43 43c24 0 43-19 43-43c0-7-3-15-6-21l76 0c-4 6-6 14-6 21c0 24 19 43 42 43c24 0 43-19 43-43c0-23-19-42-43-42z m-128 42c0 12-9 22-21 22c-12 0-21-10-21-22c0-11 9-21 21-21c12 0 21 10 21 21z m128 22c-11 0-21-10-21-22c0-11 10-21 21-21c12 0 22 10 22 21c0 12-10 22-22 22z m225-108c-6-4-14-5-21-2l-97 40l0-37c0-18-14-32-32-32l-11 0l0-53c0-6 5-11 11-11l34 0c4 12 16 21 30 21l64 0c18 0 32-14 32-32c0-17-14-32-32-32l-64 0c-14 0-26 9-30 22l-34 0c-18 0-32 14-32 32l0 53l-64 0l0-32c0-18-14-32-32-32l-213 0c-6 0-11 5-11 11c0 6 5 10 11 10l213 0c6 0 11 5 11 11l0 32l-182 0c-17 0-32 14-32 32l0 171c0 17 15 32 32 32l299 0c18 0 32-15 32-32l0-38l97 41c3 1 6 2 9 2c4 0 8-2 12-4c6-4 10-11 10-19l0-136c0-7-4-14-10-18z m-86-116l64 0c6 0 11 4 11 10c0 6-5 11-11 11l-64 0c-6 0-11-5-11-11c0-6 5-10 11-10z m-64 298l-299 0c-6 0-10-4-10-10l0-171c0-6 4-11 10-11l299 0c6 0 11 5 11 11l0 53c0 0 0 0 0 0l0 64c0 0 0 0 0 0l0 54c0 6-5 10-11 10z m139-28l-1 1l-106-44l0-50l106-44l1 1z"/>
    </symbol>
  
    <symbol id="icon-clap-board" viewBox="0 0 512 512">
      <path d="m501 128l11 0l0-85l0-12l-445 0l-7 0l0 0l-49 0l0 0l-11 0l0 450l512 0l0-335l-397 0l18-18l368 0z m-147-22l-41 0l-52-53l40 0z m-22-53l46 0l52 53l-45 0z m-50 53l-46 0l-52-53l46 0z m208 0l-29 0l-52-53l81 0z m-337-53l52 53l-71 0l-43-53z m178 162l46-47l46 0l-47 47z m-32 0l-40 0l47-47l40 0z m-71 0l-46 0l47-47l46 0z m-77 0l-40 0l47-47l40 0z m-71 0l-58 0l0-47l105 0z m-58 244l0-222l468 0l0 222z m468-244l-83 0l47-47l36 0z m-468-69l0-93l40 0l51 63l-29 30z m25 127l393 0l0 22l-393 0z m0 55l123 0l0 22l-123 0z m0 58l123 0l0 22l-123 0z m9-300c-9 0-17 7-17 16c0 10 8 17 17 17c9 0 16-7 16-17c0-9-7-16-16-16z"/>
    </symbol>
  
    <symbol id="icon-design-graphic-tablet-streamline-tablet" viewBox="0 0 512 512">
      <path d="m469 107c-6 0-10 4-10 10c0 6 4 11 10 11c12 0 22 10 22 21l0 320c0 12-10 22-22 22l-426 0c-12 0-22-10-22-22l0-21l64 0l0-277l-64 0l0-22c0-11 10-21 22-21l213 0c6 0 11-5 11-11c0-6-5-10-11-10l-213 0c-24 0-43 19-43 42l0 320c0 24 19 43 43 43l426 0c24 0 43-19 43-43l0-320c0-23-19-42-43-42z m-448 170l43 0l0 64l-43 0z m0 150l0-64l43 0l0 64z m43-235l0 64l-43 0l0-64z m149-21c6 0 11-5 11-11c0-6-5-11-11-11l-106 0l0 320l362 0l0-320l-42 0c-6 0-11 5-11 11c0 6 5 11 11 11l21 0l0 277l-320 0l0-277z m178-142l-177 176l-21 67l-19 19c-4 4-4 11 0 15c2 2 5 3 7 3c3 0 6-1 8-3l19-19l67-21l1-2l115-115c0 0 0 0 0 0c0 0 0 0 0 0l75-75c17-17 17-44 0-60c-16-17-44-17-60 0l-15 15c0 0 0 0 0 0c0 0 0 0 0 0z m-8 98l-30-30l46-46l30 30z m-114 114l-30-30l99-99l30 30z m-41-10l21 21l-30 9z m223-202c9 8 9 22 0 30l-7 7l-30-30l7-7c8-8 22-8 30 0z"/>
    </symbol>
  
    <symbol id="icon-headphone" viewBox="0 0 512 512">
      <path d="m447 238c-3-60-21-108-56-145 0 0 0 0 0 0-7-9-16-16-25-23-9-7-18-13-28-18-25-13-53-20-82-20-29 0-57 7-82 20-10 5-19 11-28 18-9 7-17 14-25 23 0 0 0 0 0 0-34 37-53 86-56 145-3 51 3 130 13 162 20 67 40 80 72 80 32 0 58-26 58-59l0-106c0-32-23-59-53-59-18 0-34 10-44 25 0 0-11-9-13-23-2-15-3-33 5-63 9-31 21-21 36-39 3-4 5-7 8-10 3-3 6-7 10-10 1-1 3-2 5-4 11-9 21-17 33-23 19-8 40-13 61-13 21 0 42 5 61 13 12 6 22 14 33 23 2 2 4 3 5 4 4 3 7 7 10 10 3 3 6 6 8 10 15 18 27 8 36 39 8 30 7 48 5 63-2 14-13 23-13 23-10-15-26-25-44-25-30 0-53 27-53 59l0 106c0 33 27 59 58 59 32 0 52-13 72-80 10-32 16-111 13-162z"/>
    </symbol>
  
    <symbol id="icon-mic-c" viewBox="0 0 512 512">
      <path d="m329 32l-146 0c-30 0-55 23-55 52l0 28 152 0 0 37-152 0 0 43 152 0 0 37-152 0 0 43 152 0 0 37-152 0 0 42c0 29 25 52 55 52l30 0 0 77 86 0 0-77 30 0c31 0 55-23 55-52l0-42-59 0 0-37 59 0 0-43-59 0 0-37 59 0 0-43-59 0 0-37 59 0 0-28c0-29-24-52-55-52z"/>
    </symbol>
  
    <symbol id="icon-phone" viewBox="0 0 512 512">
      <path d="m457 354c0 5-1 12-3 20-2 9-4 15-6 20-4 10-15 20-35 30-17 10-35 15-53 15-5 0-10 0-15-1-5-1-10-2-16-4-6-1-11-3-14-4-3-1-8-3-16-6-7-3-12-4-14-5-18-7-35-14-50-24-24-15-49-35-75-61-26-26-47-51-62-76-9-14-17-31-23-50-1-1-3-6-6-14-2-7-4-13-5-16-1-3-3-7-5-13-1-6-2-12-3-17-1-4-1-9-1-15 0-17 5-35 14-53 11-19 21-31 31-35 4-2 11-4 19-6 9-1 15-2 20-2 3 0 5 0 6 0 4 2 9 9 16 22 2 4 5 9 8 16 4 6 7 12 10 18 3 5 6 10 9 15 1 1 2 3 5 7 3 4 5 8 6 10 1 3 2 6 2 8 0 4-3 9-8 15-5 5-11 11-18 15-6 5-12 10-17 16-6 5-9 9-9 13 0 1 1 4 2 6 1 3 2 5 2 6 1 1 2 4 4 7 2 3 3 5 4 5 14 26 31 49 49 67 19 19 41 36 67 50 1 0 3 1 6 3 3 2 5 4 7 4 1 1 3 2 6 3 2 1 4 1 6 1 3 0 8-2 13-8 5-5 11-11 15-18 5-6 10-12 16-17 6-6 10-8 14-8 3 0 6 0 8 2 3 1 7 3 11 6 4 2 6 4 7 5 4 3 10 6 15 9 5 3 11 6 18 10 7 3 12 6 16 8 13 7 20 12 21 15 1 2 1 4 1 6z"/>
    </symbol>
  
    <symbol id="icon-cancel" viewBox="0 0 512 512">
      <path d="m367 336c6 6 9 13 9 22c0 8-3 16-9 22c-6 5-13 8-22 8c-8 0-16-3-22-8c0 0-68-78-68-78c0 0-67 78-67 78c-6 5-14 8-22 8c-9 0-16-3-22-8c-6-6-8-14-8-22c0-9 2-16 8-22c0 0 71-80 71-80c0 0-71-81-71-81c-6-6-8-13-8-22c0-8 2-16 8-22c6-5 13-8 22-8c8 0 16 3 22 8c0 0 67 78 67 78c0 0 68-78 68-78c6-5 14-8 22-8c9 0 16 3 22 8c6 6 9 14 9 22c0 9-3 16-9 22c0 0-71 81-71 81c0 0 71 80 71 80"/>
    </symbol>
  
    <symbol id="icon-facebook" viewBox="0 0 512 512">
      <path d="m384 3l0 76-45 0c-17 0-28 3-33 10-6 7-9 17-9 31l0 54 84 0-11 85-73 0 0 216-87 0 0-216-73 0 0-85 73 0 0-62c0-36 10-63 29-83 20-19 47-29 80-29 28 0 49 1 65 3z"/>
    </symbol>
  
    <symbol id="icon-facebook-square" viewBox="0 0 512 512">
      <path d="m393 37c23 0 42 8 58 24 16 16 24 35 24 58l0 274c0 23-8 42-24 58-16 16-35 24-58 24l-54 0 0-170 57 0 9-66-66 0 0-42c0-11 3-19 7-24 5-5 13-8 26-8l35 0 0-60c-12-1-29-2-51-2-26 0-46 7-62 23-15 15-23 36-23 64l0 49-57 0 0 66 57 0 0 170-152 0c-23 0-42-8-58-24-16-16-24-35-24-58l0-274c0-23 8-42 24-58 16-16 35-24 58-24z"/>
    </symbol>
  
    <symbol id="icon-twitter" viewBox="0 0 512 512">
      <path d="m481 117c-13 18-28 34-46 47 0 3 0 7 0 12 0 25-3 50-11 74-7 25-18 49-33 71-14 23-32 43-52 61-21 17-45 31-74 41-29 11-60 16-92 16-52 0-99-14-142-42 7 1 14 2 22 2 43 0 81-14 115-40-20 0-38-6-54-18-16-12-27-27-33-46 7 1 13 2 18 2 8 0 16-1 24-4-21-4-39-15-53-31-14-17-21-37-21-59l0-1c13 7 27 11 42 11-13-8-23-19-30-32-8-14-11-29-11-44 0-17 4-33 12-47 23 28 51 51 84 68 33 17 69 27 107 29-2-8-3-15-3-22 0-25 9-47 27-65 18-18 40-27 66-27 26 0 49 10 67 29 21-4 40-11 59-22-7 22-21 39-41 51 18-2 35-7 53-14z"/>
    </symbol>
  
    <symbol id="icon-social-whatsapp" viewBox="0 0 512 512">
      <path d="m260 32c-121 0-220 98-220 218 0 41 12 80 32 113l-40 117 122-39c31 18 68 27 106 27 122 0 220-97 220-218 0-120-98-218-220-218z m109 301c-5 13-28 25-38 25-11 1-11 8-67-16-57-25-90-84-93-88-3-4-22-31-21-58 1-28 16-41 22-46 5-5 11-6 15-7 4 0 7 0 10 0 4 1 9 0 13 11 4 11 14 39 16 42 1 3 2 6 0 10-2 4-3 6-6 9-3 3-6 7-9 9-3 3-6 6-3 12 3 5 14 24 30 39 21 20 38 27 44 30 5 3 9 2 12-1 4-4 15-16 19-21 4-6 7-5 13-3 5 2 32 17 37 20 6 3 9 4 11 7 1 2 1 13-5 26z"/>
    </symbol>
  
    <symbol id="icon-enter-1" viewBox="0 0 512 512">
      <path d="m491 0l-203 0c-12 0-21 10-21 21c0 12 9 22 21 22l181 0l0 320l-396 0l70-71c8-8 8-21 0-30c-8-8-22-8-30 0l-107 107c-1 1-2 2-2 3c-1 1-1 1-1 2c-1 0-1 1-1 2c-1 1-1 1-1 2c0 1 0 1-1 2c0 3 0 5 0 8c1 1 1 1 1 2c0 1 0 1 1 2c0 1 0 2 1 2c0 1 0 1 1 2c0 1 1 2 2 3l107 107c4 4 10 6 15 6c5 0 11-2 15-6c8-9 8-22 0-30l-70-71l418 0c11 0 21-9 21-21l0-363c0-11-10-21-21-21z"/>
    </symbol>
  
    <symbol id="icon-enter-2" viewBox="0 0 512 512">
      <path d="m416 0l-320 0c-53 0-96 43-96 96l0 320c0 53 43 96 96 96l320 0c53 0 96-43 96-96l0-320c0-53-43-96-96-96z m-32 267c0 6-5 10-11 10l-209 0l46 46c4 4 4 11 0 15c-2 2-5 3-7 3c-3 0-6-1-8-3l-64-64c-1-1-2-2-2-3c0-1 0-1 0-1c-1-1-1-2-1-3c0-1 0-2 1-3c0-1 0-1 0-1c0-2 1-3 2-4l64-64c4-4 11-4 15 0c4 4 4 11 0 15l-46 46l199 0l0-75c0-6 4-10 10-10c6 0 11 4 11 10z"/>
    </symbol>
  
    <symbol id="icon-sign-out" viewBox="0 0 512 512">
      <path d="m201 411c0 1 0 3 0 6 1 3 1 6 1 8-1 2-1 4-1 6-1 3-2 5-3 6-2 1-4 2-6 2l-91 0c-23 0-42-8-59-24-16-16-24-36-24-58l0-202c0-22 8-42 24-58 17-16 36-24 59-24l91 0c2 0 5 1 6 3 2 2 3 4 3 6 0 1 0 3 0 6 1 3 1 6 1 8-1 2-1 4-1 6-1 3-2 5-3 6-2 1-4 2-6 2l-91 0c-13 0-24 4-33 13-9 9-13 20-13 32l0 202c0 12 4 23 13 32 9 9 20 13 33 13l89 0 3 1 3 0 3 2 2 3z m265-155c0 5-2 9-5 13l-156 155c-3 4-7 6-12 6-5 0-10-2-13-6-4-3-6-8-6-13l0-82-128 0c-5 0-9-2-13-5-3-4-5-8-5-13l0-110c0-5 2-9 5-13 4-3 8-5 13-5l128 0 0-82c0-5 2-10 6-13 3-4 8-6 13-6 5 0 9 2 12 6l156 155c3 4 5 8 5 13z"/>
    </symbol>
  
    <symbol id="icon-sign-in" viewBox="0 0 512 512">
      <path d="m375 256c0 5-2 9-6 13l-155 155c-4 4-8 6-13 6-5 0-9-2-13-6-3-3-5-8-5-13l0-82-128 0c-5 0-9-2-13-5-4-4-5-8-5-13l0-110c0-5 1-9 5-13 4-3 8-5 13-5l128 0 0-82c0-5 2-10 5-13 4-4 8-6 13-6 5 0 9 2 13 6l155 155c4 4 6 8 6 13z m100-101l0 202c0 22-8 42-24 58-16 16-35 24-58 24l-91 0c-3 0-5-1-7-3-2-2-2-4-2-6 0-1-1-3-1-6 0-3 0-6 0-8 0-2 1-4 1-6 0-3 1-5 3-6 1-1 3-2 6-2l91 0c13 0 23-4 32-13 9-9 14-20 14-32l0-202c0-12-5-23-14-32-9-9-19-13-32-13l-89 0-3-1-4 0-2-2-2-3 0-3c0-1-1-3-1-6 0-3 0-6 0-8 0-2 1-4 1-6 0-3 1-5 3-6 1-1 3-2 6-2l91 0c23 0 42 8 58 24 16 16 24 36 24 58z"/>
    </symbol>
  
    <symbol id="icon-arrow-31" viewBox="0 0 512 512">
      <path d="m491 235l-415 0l216-198c8-8 9-21 1-30c-8-9-21-9-30-1l-256 234c0 0 0 1 0 1c-1 0-2 1-2 2c0 0-1 0-1 1c-1 1-1 2-2 2c0 1 0 1 0 2c-1 1-1 2-1 3c0 0 0 0-1 1c0 1 0 2 0 4c0 2 0 3 0 4c1 1 1 1 1 1c0 1 0 2 1 3c0 1 0 1 0 2c1 0 1 1 2 2c0 1 1 1 1 1c0 1 1 2 2 2c0 0 0 1 0 1l256 234c4 4 9 6 14 6c6 0 12-2 16-7c8-9 7-22-1-30l-216-198l415 0c11 0 21-9 21-21c0-12-10-21-21-21z"/>
    </symbol>
  
    <symbol id="icon-arrow-13" viewBox="0 0 512 512">
      <path d="m469 203l-262 0l93-89c10-10 16-24 15-39c0-15-6-29-17-39c-11-11-25-17-41-17c-14 0-27 5-37 15l-217 217c-4 4-4 11 0 15l213 212c10 10 23 15 37 15c15 0 30-6 41-17c11-11 17-26 17-41c0-14-5-27-15-37l-89-88l262 0c13 0 25-7 33-19c6-9 10-22 10-35c0-26-16-53-43-53z"/>
    </symbol>
  
</svg>
